<?xml version="1.0" encoding="UTF-8"?>
<svg id="Ebene_2" data-name="Ebene 2" xmlns="http://www.w3.org/2000/svg" viewBox="0 0 160 160">
  <defs>
    <style>
      .cls-1 {
        stroke-width: 0px;
      }
    </style>
  </defs>
  <path class="cls-1" d="m128.89695,120.0058l-15.98395-10.66846-11.27136,2.17078-12.77423-12.69073-5.86298,2.45477-.13367-16.745c2.57416,3.34619,6.25714,5.59222,10.50201,6.33801,1.01855.17871,2.04102.2666,3.05859.2666,3.53125,0,6.99902-1.06445,10.00391-3.10742l13.68457-9.30762.70117-.48438,11.32422-28.61426-30.67188.31934-14.31348,9.73633c-1.02051.69373-1.94958,1.48376-2.79071,2.34668-.0108-.05499-.01434-.11005-.0257-.16504-.93359-4.52734-3.58008-8.46875-7.45117-11.09668l-13.69434-9.29395-.64355-.43066-30.83789-.03125,11.59277,28.39746,14.3252,9.72168c3.00293,2.03809,6.46582,3.10059,9.99316,3.10059,1.02148,0,2.04785-.08887,3.07031-.26953,2.60846-.45947,4.99847-1.4975,7.05969-2.99353l.19495,24.42773-13.21436,5.53265-19.03607-3.67365-15.05878,14.75952H10.35129v5.07031h139.51367v-5.07031h-20.96802Zm-38.92554-56.19727l13.06445-8.88672,21.71094-.22559-8.07422,20.31738-13.04883,8.87598c-2.78809,1.89648-6.12305,2.62012-9.38574,2.05078-2.37701-.4173-4.50488-1.49524-6.18896-3.09283l14.58643-10.00775-2.86719-4.17969-14.56409,9.99243c-.85876-2.14771-1.07587-4.51416-.59216-6.87036.66699-3.24609,2.57031-6.07812,5.35938-7.97363Zm-20.1416,13.2207c-3.26367.57715-6.59766-.15039-9.38672-2.04395l-13.0752-8.87402-8.20605-20.10059,21.8623.02148,13.05957,8.86328c2.78906,1.89355,4.69336,4.72363,5.3623,7.96973.48755,2.36401.26978,4.73914-.59534,6.89331l-14.67615-9.87476-2.83008,4.20508,14.65399,9.85986c-1.68011,1.58948-3.80023,2.66333-6.16864,3.08057Z"/>
</svg>