<?xml version="1.0" encoding="UTF-8"?>
<svg id="Ebene_2" data-name="Ebene 2" xmlns="http://www.w3.org/2000/svg" viewBox="0 0 160 160">
  <defs>
    <style>
      .cls-1 {
        stroke-width: 0px;
      }
    </style>
  </defs>
  <path class="cls-1" d="m102.61898,60.76025c-7.42468-1.78162-14.89459.32697-20.2915,4.98444v-13.3385l12.37695-18.24121-4.13672-2.80664-7.98846,11.77258c.40173-1.87939.41992-3.84479.01678-5.80188-.77051-3.73242-2.95117-6.98145-6.1416-9.14746l-10.89453-7.39355-.6416-.43066-25.4502-.02637,9.56836,23.43945,11.52344,7.82031c2.53516,1.7207,5.41309,2.5459,8.24512,2.5459,3.0863,0,6.10431-1.00275,8.5788-2.87384-.01929.12518-.05634.24695-.05634.37482v13.97797c-5.38489-4.56744-12.78552-6.62048-20.14154-4.85535-11.30005,2.71167-17.98889,12.98975-16.77258,24.24469,0,0,.26404,1.9978.48126,2.90295l7.24451,36.56378c1.729,9.38953,10.39929,16.03113,20.06274,15.04364,4.64655-.47485,8.72888-2.64154,11.70062-5.81415,2.9718,3.17261,7.05402,5.33929,11.7005,5.81415,9.66345.98749,18.33374-5.65411,20.06281-15.04364l7.24451-36.56378c.21716-.90515.4812-2.90295.4812-2.90295,1.21631-11.25494-5.47247-21.53302-16.77252-24.24469Zm-36.91162,52.84222l-5.63281-8.35352,4.14648-2.79492,5.63281,8.35352-4.14648,2.79492Zm11.74902-70.64813l-11.13672-7.49249-2.79102,4.14844,11.1098,7.47437c-3.08795,2.52637-7.68909,2.7984-11.26996.36938l-10.27344-6.97266-6.18164-15.14258,16.47266.0166,10.25977,6.96289c2.1084,1.43066,3.54688,3.56934,4.05273,6.02051.32428,1.57275.2312,3.15088-.24219,4.61554Zm16.65527,70.64813l-4.14453-2.79492,5.63379-8.35352,4.14453,2.79492-5.63379,8.35352Z"/>
</svg>