<?xml version="1.0" encoding="UTF-8"?>
<svg id="Ebene_2" data-name="Ebene 2" xmlns="http://www.w3.org/2000/svg" viewBox="0 0 160 160">
  <defs>
    <style>
      .cls-1 {
        stroke-width: 0px;
      }
    </style>
  </defs>
  <path class="cls-1" d="m119.44588,76.93093l20.45435-30.44043-33.08154,6.64294-19.09692-28.49316-18.15942,27.01245-24.78845-16.58801,2.72083,32.03522-30.04724,6.9137,25.63391,18.46399L7.94295,145.1086l55.52954-36.94574,5.04822,25.07428,22.578-22.63342,22.52246,14.97797v-25.46259l31.01001-6.21313-25.1853-16.97504Zm-41.57288-9.69531h7.95325v7.97607l-.85364,8.68793h-6.24597l-.85364-8.68793v-7.97607Zm-15.77283,0h7.95325v7.97607l-.85364,8.68793h-6.24597l-.85364-8.68793v-7.97607Zm7.16711,24.1908c-.76404.54871-1.83569.82361-3.21289.82361-1.31897,0-2.36719-.2749-3.14539-.82361-.77942-.54865-1.16846-1.31091-1.16846-2.2843,0-.99854.38904-1.77246,1.16846-2.32172.7782-.54871,1.82642-.82428,3.14539-.82428,1.3772,0,2.44885.27557,3.21289.82428.76404.54926,1.14587,1.32318,1.14587,2.32172,0,.97339-.38184,1.73566-1.14587,2.2843Zm15.77283,0c-.76416.54871-1.83569.82361-3.21289.82361-1.31885,0-2.36719-.2749-3.14526-.82361-.77954-.54865-1.1687-1.31091-1.1687-2.2843,0-.99854.38916-1.77246,1.1687-2.32172.77808-.54871,1.82642-.82428,3.14526-.82428,1.3772,0,2.44873.27557,3.21289.82428.76416.54926,1.14587,1.32318,1.14587,2.32172,0,.97339-.38171,1.73566-1.14587,2.2843Zm8.60571-24.1908h7.95337v7.97607l-.85376,8.68793h-6.24585l-.85376-8.68793v-7.97607Zm7.16724,24.1908c-.76416.54871-1.83569.82361-3.21289.82361-1.31897,0-2.36719-.2749-3.14551-.82361-.7793-.54865-1.16846-1.31091-1.16846-2.2843,0-.99854.38916-1.77246,1.16846-2.32172.77832-.54871,1.82654-.82428,3.14551-.82428,1.3772,0,2.44873.27557,3.21289.82428.76404.54926,1.14575,1.32318,1.14575,2.32172,0,.97339-.38171,1.73566-1.14575,2.2843Z"/>
</svg>