<?xml version="1.0" encoding="UTF-8"?>
<svg id="Ebene_2" data-name="Ebene 2" xmlns="http://www.w3.org/2000/svg" viewBox="0 0 160 160">
  <defs>
    <style>
      .cls-1 {
        stroke-width: 0px;
      }
    </style>
  </defs>
  <path class="cls-1" d="m130.0597,115.02703v-20.06934h-5.16406v-8.67676c0-11.56757-4.55573-22.32208-12.21857-30.26202l1.45367-3.55341c6.07208-1.29724,11.42017-5.47107,13.94849-11.65143,3.3573-8.20673.68365-17.36639-5.94299-22.60114l-7.05103,17.23578-6.01831.4989-3.94299-4.57404,7.05096-17.23572c-8.39551-.91071-16.72247,3.74866-20.07977,11.95532-1.17163,2.86389-1.60077,5.84357-1.39276,8.73364h-25.62506v10.21735c-17.98944,5.85895-30.03613,22.41846-30.03613,41.40375v8.50977h-5.02441v20.06934h28.49091c-2.59741,2.01617-4.72235,4.7121-6.05682,7.97418-3.3573,8.20667-.68365,17.36633,5.94299,22.60107l7.05103-17.23578,6.01831-.4989,3.94299,4.57404-7.05103,17.23572c8.39557.91077,16.72253-3.74866,20.07983-11.95532,2.52832-6.18042,1.6391-12.90582-1.78271-18.08698l1.88513-4.60803h41.52234Zm-5-5h-34.47693l8.19305-20.02734h.07098l11.26367,9.95801h14.94922v10.06934Zm-5.16406-23.74609v8.67676h-7.89258l-11.20355-9.90485,9.78174-23.91077c5.87158,6.83459,9.31439,15.67883,9.31439,25.13885Zm-79.85449.16699c0-16.25574,9.97571-30.50098,25.03613-36.11108v6.23218h5v-16.74219h7.42871v22.22949h5v-22.22949h7.5791v13.62445l-12.90619,31.5484h-17.09381l-11.97754,9.95801h-8.06641v-8.50977Zm-5.02441,13.50977h14.89746l11.97754-9.95801h13.2417l-8.19305,20.02734h-31.92365v-10.06934Z"/>
</svg>