<?xml version="1.0" encoding="UTF-8"?>
<svg id="Ebene_2" data-name="Ebene 2" xmlns="http://www.w3.org/2000/svg" viewBox="0 0 160 160">
  <defs>
    <style>
      .cls-1 {
        stroke-width: 0px;
      }
    </style>
  </defs>
  <path class="cls-1" d="m120.34545,78.52338c.12891-1.74023-.09766-3.45312-.67383-5.0918-.35803-1.01691-.85754-1.96643-1.45288-2.84729,4.14984-2.05328,7.01733-6.32043,7.01733-11.25525,0-1.92188-.42285-3.76758-1.25684-5.48438l-4.49805,2.18359c.50098,1.03125.75488,2.1416.75488,3.30078,0,3.66895-2.6272,6.7334-6.09863,7.41748-.41565-.24286-.84259-.46814-1.28711-.6626l-2.00391,4.58203c.66656.29114,1.27814.6814,1.82715,1.14301v.08258c.03308,0,.06494-.0047.09796-.00494.98309.85443,1.7439,1.95636,2.18329,3.20416.3457.9834.48145,2.01465.4043,3.06348-.30762,4.1582-3.93359,7.28711-8.10059,6.98535l-.0058.07861h-8.71484c-.75232-.42914-1.42273-.98187-1.99713-1.65479-2.28052-2.67212-2.36261-6.48346-.43805-9.23804.61823.41516,1.26379.79102,1.9566,1.09351l2.00195-4.58203c-1.0498-.45801-1.96387-1.1377-2.7168-2.01953-2.70703-3.17188-2.32812-7.95508.84375-10.66211l-3.24609-3.80273c-4.84119,4.13141-5.75244,11.16992-2.38135,16.3739-3.75806,4.61053-3.81897,11.40051.17725,16.08313.427.50018.89697.94617,1.38586,1.36694l-5.23004,26.39191-10.05005-50.71497c3.74719-2.17664,6.27899-6.22473,6.27899-10.86127,0-1.49829-.26532-2.94696-.77399-4.32727,3.68188-2.19281,6.16168-6.20239,6.16168-10.78992,0-1.00092-.12915-1.98053-.35852-2.93622,5.72876-1.16583,10.05383-6.24207,10.05383-12.30988,0-2.8125-.95801-5.5752-2.69824-7.77832l-3.92383,3.09766c1.06152,1.34473,1.62207,2.96289,1.62207,4.68066,0,4.09766-3.27795,7.43683-7.34833,7.55164-1.46973-1.88873-3.45197-3.3537-5.73761-4.15808l-1.66016,4.7168c1.97168.69336,3.58398,2.19141,4.42285,4.11133.41699.95312.62793,1.9707.62793,3.02441,0,4.16992-3.39258,7.5625-7.5625,7.5625-.97559,0-1.92285-.18164-2.81543-.54102l-1.86523,4.63867c1.48828.59863,3.06348.90234,4.68066.90234.5705,0,1.12793-.05157,1.67847-.12561.32452.85187.49634,1.74945.49634,2.6803,0,3.20276-2.00464,5.94019-4.82239,7.04083h-20.22827c-3.13477-2.29688-5.18274-5.99384-5.18274-10.16876,0-1.85889.41431-3.65277,1.17468-5.29315,2.05591,1.79437,4.5412,3.13458,7.33215,3.82245l.875.22461,1.24414-4.84375-.89844-.23047c-5.6416-1.38965-9.58203-6.42578-9.58203-12.24609,0-3.33105,1.28711-6.47266,3.62305-8.84668.56543-.57422,1.18848-1.09668,1.85254-1.55371l-2.83398-4.11914c-.9248.63574-1.79297,1.36426-2.58203,2.16504-3.2627,3.31543-5.05957,7.70312-5.05957,12.35449,0,3.33704.94006,6.48157,2.57788,9.17249-1.76575,2.78857-2.72339,6.01874-2.72339,9.39392,0,5.34692,2.40302,10.1355,6.17627,13.36816l-16.22015,81.85065h90.30115l-11.20392-56.53754c3.55194-1.99481,6.08002-5.66388,6.40271-10.02209Zm-55.62653,16.09576c3.22369-.03668,6.24396.84265,8.81494,2.39459l-5.5636,9.12604c-.9165-.54138-1.98785-.84698-3.12988-.83398-1.17407.01337-2.26501.36267-3.18494.95386l-5.77014-8.99786c2.55096-1.63928,5.57794-2.60565,8.83362-2.64264Zm-9.14569,34.3869c-2.69513-1.38953-5.04553-3.52783-6.70538-6.3288-1.64362-2.7735-2.39221-5.82874-2.33368-8.83124l10.68518.25519c-.01062,1.06433.26044,2.14496.84265,3.1275.59863,1.01013,1.44659,1.78027,2.41852,2.28137l-4.90729,9.49597Zm9.32025-11.74426c-2.21191,0-4.01074-1.79883-4.01074-4.00977s1.79883-4.00977,4.01074-4.00977c2.21094,0,4.00977,1.79883,4.00977,4.00977s-1.79883,4.00977-4.00977,4.00977Zm16.19818,5.11353c-1.58008,2.81006-3.85175,4.98602-6.48126,6.43665l-5.12158-9.38129c.92706-.52295,1.72742-1.29803,2.28717-2.29352.5755-1.02344.81848-2.14294.76648-3.23517l10.67743-.49811c.14417,3.02875-.53247,6.13342-2.12823,8.97144Z"/>
</svg>