<?xml version="1.0" encoding="UTF-8"?>
<svg id="Ebene_2" data-name="Ebene 2" xmlns="http://www.w3.org/2000/svg" viewBox="0 0 160 160">
  <defs>
    <style>
      .cls-1 {
        stroke-width: 0px;
      }
    </style>
  </defs>
  <polygon class="cls-1" points="91.51169 95.29445 94.59946 63.86159 94.59946 35.0049 65.82443 35.0049 65.82443 63.86159 68.91232 95.29445 91.51169 95.29445"/>
  <path class="cls-1" d="m91.75485,105.86153c-2.76294-1.98462-6.64075-2.97882-11.62366-2.97882-4.77087,0-8.56311.9942-11.38049,2.97882-2.82129,1.98853-4.22803,4.78839-4.22803,8.40155,0,3.52173,1.40674,6.27881,4.22803,8.26343,2.81738,1.98657,6.60962,2.98083,11.38049,2.98083,4.98291,0,8.86072-.99426,11.62366-2.98083,2.76489-1.98462,4.14624-4.7417,4.14624-8.26343,0-3.61316-1.38135-6.41302-4.14624-8.40155Z"/>
</svg>