<?xml version="1.0" encoding="UTF-8"?>
<svg id="Ebene_2" data-name="Ebene 2" xmlns="http://www.w3.org/2000/svg" viewBox="0 0 160 160">
  <defs>
    <style>
      .cls-1 {
        stroke-width: 0px;
      }
    </style>
  </defs>
  <path class="cls-1" d="m115.4563,38.58581l-15.21057-15.31396h-40.87805l-15.21057,15.29187v60.96918l14.71875,14.22614-12.05933,18.69281,4.25977,2.74805,6.50232-10.0791h43.84094l6.50244,10.0791,4.25977-2.74805-11.58521-17.9577,14.85974-14.93915v-60.96918Zm-60.99719,50.71844c0-2.75421,2.23267-4.98694,4.98706-4.98694,2.75415,0,4.98682,2.23273,4.98682,4.98694s-2.23267,4.98694-4.98682,4.98694c-2.75439,0-4.98706-2.23273-4.98706-4.98694Zm40.3324,25.5426l3.35706,5.20361h-37.29883l3.35693-5.20361h30.58484Zm5.5885-20.55566c-2.75415,0-4.98694-2.23273-4.98694-4.98694s2.23279-4.98694,4.98694-4.98694,4.98706,2.23273,4.98706,4.98694-2.23279,4.98694-4.98706,4.98694Zm5.09351-35.51996h-50.69531l-.14343-15.17725,10.08777-10.16852h30.68481l10.06616,10.16852v15.17725Z"/>
</svg>