<?xml version="1.0" encoding="UTF-8"?>
<svg id="Ebene_2" data-name="Ebene 2" xmlns="http://www.w3.org/2000/svg" viewBox="0 0 160 160">
  <defs>
    <style>
      .cls-1 {
        stroke-width: 0px;
      }
    </style>
  </defs>
  <path class="cls-1" d="m136.81753,64.45421l-39.63666-16.48273-4.61346-22.77997-68.60388,13.8938,8.88626,44.5045,22.10244-4.56847,8.38184,3.48553,7.44043,36.73871-5.17688,12.44897,9.13019,3.79675,17.1051-41.13336,27.75049,11.53992,17.23413-41.44366Zm-87.771,7.10767l4.68695-12.21954-8.76007-.05579,6.24921-4.29639-10.7688-10.7688,13.72607,5.6355-1.56232-7.75574,10.99194,7.36517,4.07318-9.26227-.13422,8.52649-8.12372,19.53552v-7.13818l-10.37823,10.43402Zm28.51257,31.36841l-3.20837-15.84216,8.35199,3.47314-5.14362,12.36902Zm-16.07031-26.60583l13.39447-32.21027,55.39771,23.03693-13.39447,32.21021-55.39771-23.03687Z"/>
  <polygon class="cls-1" points="93.57442 65.58282 90.69332 75.02441 97.21517 77.73644 101.87844 69.036 105.34145 60.70837 97.03738 57.25518 93.57442 65.58282"/>
  <path class="cls-1" d="m93.02035,78.5606c-1.37683-.57251-2.59052-.74072-3.64172-.50604-1.0528.23523-1.7948.87445-2.22839,1.91711-.42261,1.01636-.34753,1.98083.22845,2.89209.57471.91144,1.54974,1.65344,2.92651,2.22595,1.43805.59802,2.67639.77643,3.71216.53473,1.03607-.24097,1.76556-.87079,2.18823-1.88715.43359-1.04266.37091-2.01648-.18835-2.92212-.55914-.9043-1.5589-1.65662-2.99689-2.25458Z"/>
</svg>