<?xml version="1.0" encoding="UTF-8"?>
<svg id="Ebene_2" data-name="Ebene 2" xmlns="http://www.w3.org/2000/svg" viewBox="0 0 160 160">
  <defs>
    <style>
      .cls-1 {
        stroke-width: 0px;
      }
    </style>
  </defs>
  <path class="cls-1" d="m80.14191,29.9267c-27.55469,0-49.97168,22.41699-49.97168,49.97168s22.41699,49.97266,49.97168,49.97266,49.97168-22.41797,49.97168-49.97266-22.41699-49.97168-49.97168-49.97168Zm2.5,47.47168v-42.39862c10.71191.59003,20.43494,4.94489,27.86755,11.76202-7.57129,8.52783-11.94861,19.24188-12.50781,30.6366h-15.35974Zm-5,0h-15.29907c-.3606-11.47437-4.60986-22.37708-12.10449-31.05139,7.37158-6.57715,16.91187-10.76935,27.40356-11.34723v42.39862Zm-31.74463,31.60388c-6.17639-7.25665-10.0968-16.48694-10.65405-26.60388h21.99658c-.74023,9.90601-4.68335,19.18872-11.34253,26.60388Zm16.35474-26.60388h15.38989v42.3996c-10.92053-.6015-20.80798-5.12158-28.29382-12.16882,7.64685-8.38165,12.14612-18.94946,12.90393-30.23077Zm20.38989,0h15.3623c.56201,11.35638,4.95239,22.10284,12.51245,30.63019-7.43359,6.82129-17.15918,11.1792-27.87476,11.76941v-42.3996Zm31.3689-32.03687c6.39233,7.32056,10.46118,16.71698,11.02966,27.03687h-22.02673c.54785-10.03674,4.38965-19.47162,10.99707-27.03687Zm-67.31982-.48254c6.56616,7.72205,10.29749,17.36987,10.65186,27.51941h-22.09961c.58081-10.5459,4.81177-20.13239,11.44775-27.51941Zm67.32007,59.5564c-6.59851-7.56464-10.44507-17.03247-10.99561-27.03699h22.02502c-.56848,10.31976-4.63708,19.71631-11.02942,27.03699Z"/>
</svg>