<?xml version="1.0" encoding="UTF-8"?>
<svg id="Ebene_2" data-name="Ebene 2" xmlns="http://www.w3.org/2000/svg" viewBox="0 0 160 160">
  <defs>
    <style>
      .cls-1 {
        stroke-width: 0px;
      }
    </style>
  </defs>
  <path class="cls-1" d="m79.94701,85.22918c-17.85547,0-32.38281,14.52734-32.38281,32.38281,0,17.85645,14.52734,32.38379,32.38281,32.38379,17.85645,0,32.38379-14.52734,32.38379-32.38379,0-17.85547-14.52734-32.38281-32.38379-32.38281Zm24.96387,28.7168l1.9646-.87671c.24866,1.47852.38501,2.99463.38501,4.54272,0,15.06055-12.25293,27.31348-27.31348,27.31348-5.55994,0-10.73425-1.67389-15.05347-4.53845l1.05151-4.49866,2.88867-2.46289,1.06543-7.45801-7.78809-4.38574-5.29199-4.43945-4.13428-1.12738c.15063-2.59674.66724-5.09583,1.49609-7.44971l1.71338-.65045,3.88672-3.9707,5.99805-2.86523.09375-5.11328.40479-1.98413c4.02344-2.33649,8.69092-3.68188,13.66943-3.68188,3.40918,0,6.67188.63324,9.68384,1.77936l-.46021.13568-2.37793,4.72461-6.11816,2.09766-.08887,6.00488-3.05957,3.25977-1.83301,6.4209,5.19629,5.87012,6.51758-.65137,2.26074,4.96094,1.55176,10.76953,3.62012,2.41309,7.26758-9.75293,2.22949-7.71484.57422-6.6709Z"/>
  <path class="cls-1" d="m62.67088,84.95379c-.39844-5.64563.34949-12.49713,3.22461-19.23572,0,0,2.75537,4.99359,8.89282,8.05933,0,0-5.87085-15.87323,7.79468-30.20392,0,0-1.9801,11.88739,10.75854,20.61169,5.63379,3.85846,9.55249,13.32263,7.72266,22.5116-.12268.53833-.23364.97546-.33118,1.33051l3.62048,2.41864c.17273-.2157.34937-.44366.51318-.66809,1.89124-2.42426,3.6709-5.29437,5.03394-8.62109,2.54395-6.20862,3.54443-13.38995,1.70667-19.82233-.36096-1.26343-1.48376-4.48419-1.76648-5.20599-2.15222-5.49579-3.37402-11.29205-1.12476-21.00909.45508-1.96472,2.8291-7.55389,2.8291-7.55389,0,0-5.78003,2.78766-10.51489,8.00366-3.32874,3.66772-4.76685,7.12866-5.37671,8.10535,0-11.1546-2.00635-19.34045-8.02515-26.0813-5.44312-6.09631-8.11499-8.80286-18.29712-11.71661-1.58594-.4541-6.48059-1.23804-6.48059-1.23804l1.51282,5.15302c.0376.12738,3.68555,12.85498-1.45581,21.49359-3.00708,5.05341-6.39136,9.11169-9.55676,12.62927-3.73181,4.14691-8.44006,10.5498-10.28198,18.10474-2.19287,8.99304.95801,21.71564,8.76233,30.10535l10.8396-7.17065Z"/>
</svg>