<?xml version="1.0" encoding="UTF-8"?>
<svg id="Ebene_2" data-name="Ebene 2" xmlns="http://www.w3.org/2000/svg" viewBox="0 0 160 160">
  <defs>
    <style>
      .cls-1 {
        stroke-width: 0px;
      }
    </style>
  </defs>
  <path class="cls-1" d="m119.87923,41.92876v-11.62634H40.10482v11.63049l-15.03613,3.00037v15.30469h5.07031v-11.14648l9.96582-1.98932v72.91315h5.50464v4.62335c0,3.00427,2.43549,5.43976,5.43982,5.43976s5.43976-2.43549,5.43976-5.43976v-4.62335h46.67529v4.62335c0,3.00427,2.43549,5.43976,5.43982,5.43976s5.43982-2.43549,5.43982-5.43976v-4.62335h5.83527V47.09795l9.9873,1.99353v11.14648h5.07031v-15.30469l-15.05762-3.00452Zm-74.65137,63.18518v-5.07031h14.69922v5.07031h-14.69922Zm69.41895,0h-14.57324v-5.07031h14.57324v5.07031Zm-69.47168-15.01831v-40.25018h69.63379v40.25018H45.17513Z"/>
</svg>