<?xml version="1.0" encoding="UTF-8"?>
<svg id="Ebene_2" data-name="Ebene 2" xmlns="http://www.w3.org/2000/svg" viewBox="0 0 160 160">
  <defs>
    <style>
      .cls-1 {
        stroke-width: 0px;
      }
    </style>
  </defs>
  <path class="cls-1" d="m115.76629,79.71835c-.07324-5.32715-4.51562-9.61133-9.82812-9.61133-.04395,0-.08984.00098-.13477.00098-2.11566.02936-4.11346.73676-5.76453,1.99866-.77924-2.8252-2.79285-5.13135-5.42139-6.30817l40.13483-26.83771-15.68726-23.79614-33.6698,33.74756-.16998-9.05615c-.07324-5.32715-4.42969-9.61133-9.74219-9.61133-.04395,0-.08984.00098-.13477.00098-2.60254.03613-5.03613,1.08301-6.85156,2.94824-1.81445,1.86523-2.79492,4.32617-2.75977,6.92676l.36102,28.1333-.94727.94946-4.52216-21.97632c-1.05664-5.26562-6.19434-8.69629-11.46973-7.63867-2.55273.51172-4.75293,1.98633-6.19629,4.15234-1.44238,2.16699-1.95508,4.76562-1.44434,7.31543l9.09668,45.58887.05078-.01013v48.6322l41.24238-.06758c6.51367-.08887,12.83672-2.99199,17.23321-7.60039,4.36133-4.57324,6.71484-10.68457,6.625-17.16406v-40.7168Zm-13.23047-3.1748c.88379-.9082,2.06836-1.41797,3.33594-1.43555.02246-.00098.04395-.00098.06543-.00098,2.58594,0,4.70801,2.08594,4.74316,4.67969l.19336,14.09015-.00775,1.91742c-.06726,1.1355-.51337,2.20135-1.31451,3.02466-.88379.9082-2.06836,1.41797-3.33594,1.43555-.02246.00098-.04395.00098-.06543.00098-2.58691,0-4.70801-2.08594-4.74316-4.67969l-.21484-15.6582c-.01758-1.26758.45996-2.46582,1.34375-3.37402Zm-6.92383,13.74121c.01758,1.2666-.45898,2.46484-1.34277,3.37305s-2.06836,1.41797-3.33594,1.43555h-.00879c-.40619,0-1.41205-.37091-2.47327-.9328.96881-3.10425.86993-6.55481-.55701-9.75079l-1.94574-4.66614-.03864-4.98816c-.01758-1.2666.45898-2.46484,1.34277-3.37305s2.06836-1.41797,3.33594-1.43555c.02246-.00098.04395-.00098.06543-.00098,2.58594,0,4.70801,2.08594,4.74414,4.67969l.21387,15.65918Zm-14.64819-8.52167l-9.64087,3.9519-.05524-4.3028,9.64337-6.44836.05273,6.79926Zm-10.22681-41.7088c-.01758-1.26758.45996-2.46484,1.34375-3.37305.88379-.90918,2.06836-1.41797,3.33594-1.43555.02246-.00098.04395-.00098.06543-.00098,2.58594,0,4.70801,2.08594,4.74316,4.69238l.26074,13.89569-9.45068,9.47247-.29834-23.25098Zm-24.31543,10.02051c-.24902-1.24219,0-2.50684.70312-3.56152.70215-1.05566,1.77344-1.77344,3.0166-2.02246,2.55566-.51074,5.07031,1.15332,5.58789,3.73242l8.32819,40.47003-9.17883,3.76251-8.45697-42.38098Zm59.10156,84.07324c-3.46191,3.62891-8.52422,5.98125-13.67266,6.05156l-36.18476.0207v-42.68286l27.56879-11.30078.0943.21118c.96289,2.15625,1.02832,4.55859.18359,6.76367-.84375,2.20508-2.49609,3.94922-4.6084,4.89258l-12.94531,5.4873,1.95117,4.60352,12.98828-5.50586c2.12805-.94983,3.89362-2.37817,5.2384-4.09723,1.32581.70593,3.17218,1.50153,4.79773,1.50153h.06738c2.1156-.02936,4.11334-.73663,5.76434-1.99847,1.13849,4.12903,4.9176,7.16058,9.38312,7.16058.04395,0,.08984-.00098.13477-.00098,1.61761-.02246,3.16937-.43658,4.54865-1.19379l-.06622,16.39886c.07227,5.20703-1.79004,10.06836-5.24316,13.68848Z"/>
</svg>