<?xml version="1.0" encoding="UTF-8"?>
<svg id="Ebene_2" data-name="Ebene 2" xmlns="http://www.w3.org/2000/svg" viewBox="0 0 160 160">
  <defs>
    <style>
      .cls-1 {
        stroke-width: 0px;
      }
    </style>
  </defs>
  <rect class="cls-1" x="40.12529" y="75.01827" width="4.99989" height="6.52856" transform="translate(-36.26961 36.80157) rotate(-33.6972)"/>
  <rect class="cls-1" x="81.13256" y="74.17415" width="5" height="6.5293"/>
  <path class="cls-1" d="m145.06896,90.83425h-5.68848l-30.38269-45.74896-12.75671,19.06848-12.29114-18.50793-6.39673,9.56158-19.4353-20.5274-11.50452,25.9187-21.36462-8.94116-.05719,39.1767h-10.21082l14.97681,20.73645v13.20093h100.23987v-12.16791l14.87152-21.76947Zm-36.08679-36.73334l24.39496,36.73334h-12.19769v-5.18256h-5v5.18256h-2.21979l-7.10016-10.69135h4.3219v-6.5293h-5v5.50818l-6.94354-10.45551,9.74432-14.56537Zm-1.02448,36.73334h-11.82709v-4.62201h-5v4.62201h-12.13867v-4.82611h-5v4.82611h-14.2569l24.19928-36.17279,24.02338,36.17279Zm-48.31244-47.26947l15.05719,15.90393-6.73474,10.06683-1.70789-.71472-1.11261-6.40643-4.92578.85547.56635,3.26086-9.56042-4.00104,8.41791-18.9649Zm-29.4082,15.60059l34.89734,14.60529-5.2561,7.85669-1.98694-2.97955-4.16016,2.77344,3.13739,4.70483-3.14978,4.70819h-8.30127l-1.89825-2.84662-4.16016,2.77344.04883.07318h-9.21564l.04474-31.66888Z"/>
</svg>