<?xml version="1.0" encoding="UTF-8"?>
<svg id="Ebene_2" data-name="Ebene 2" xmlns="http://www.w3.org/2000/svg" viewBox="0 0 160 160">
  <defs>
    <style>
      .cls-1 {
        stroke-width: 0px;
      }
    </style>
  </defs>
  <path class="cls-1" d="m124.65285,64.98274v-.02191l-44.74548-18.47583v-.00085l-.0011.00043-.00085-.00043v.00085l-44.74548,18.47583H9.88491v35.42816h25.78601l44.2345,18.26483v.00079l.00085-.00037.0011.00037v-.00079l44.74548-18.47583h25.39124v-35.19525h-25.39124Zm-89.49292,30.33594H14.95522v-25.10156h20.20471v25.10156Zm44.75818,5.33008l-16.72559-6.91211,1.91016-4.62109,14.8252,6.12695,14.79004-6.05371,1.89453,4.62695-16.69434,6.83301Zm0-15.74219l-16.72559-6.91211,1.91016-4.62109,14.8252,6.12695,14.79004-6.05469,1.89453,4.62695-16.69434,6.83398Zm65.05566,9.89453h-20.32092v-24.74805h20.32092v24.74805Z"/>
</svg>