<?xml version="1.0" encoding="UTF-8"?>
<svg id="Ebene_2" data-name="Ebene 2" xmlns="http://www.w3.org/2000/svg" viewBox="0 0 160 160">
  <defs>
    <style>
      .cls-1 {
        stroke-width: 0px;
      }
    </style>
  </defs>
  <path class="cls-1" d="m134.88294,50.08099l-12.36816-.00293-.10645-19.27832-15.71289,6.50977-6.24219-15.08398-13.00977,8.69727-17.8877-3.69336,1.58752,7.9248c-4.64197.22803-9.02454,2.25684-12.20789,5.60425-3.28882-3.45966-7.9209-5.63062-13.05933-5.63062-9.94727,0-18.04004,8.09277-18.04004,18.03906,0,2.41388.50244,4.78894,1.42725,6.98962h-4.30505v12.07178c1.30505,29.2113,25.39319,52.495,54.92639,52.495s53.62134-23.28369,54.92639-52.495c0,0,.06311-1.93243.06311-2.49445,0-.04321.00879-19.65289.00879-19.65289Zm-62.86328-9.88281c7.15137,0,12.96875,5.81738,12.96875,12.96875,0,2.51379-.71826,4.92053-2.047,6.98962h-20.43323c.92285-2.18945,1.40698-4.5481,1.40698-6.98962,0-2.93024-.71753-5.69086-1.96289-8.13977,2.453-3.02618,6.15576-4.82898,10.06738-4.82898Zm-37.05676,19.95837c-1.32849-2.07629-2.05652-4.50592-2.05652-6.98962,0-7.15137,5.81836-12.96875,12.96973-12.96875s12.96875,5.81738,12.96875,12.96875c0,2.5141-.70459,4.90784-2.0437,6.98962h-21.83826Zm21.20227,39.7887h-5.07031v-30.29785h5.07031v30.29785Zm25.2627,11.34375h-5.07031v-41.6416h5.07031v41.6416Zm25.2627-11.34375h-5.07031v-30.29785h5.07031v30.29785Zm-18.04028-39.7887c.91895-2.18616,1.40845-4.55115,1.40845-6.98962,0-8.42554-5.81543-15.50037-13.63721-17.47314l-.39111-1.95068,12.46582,2.57422,9.63672-6.44141,5.81641,14.05859,13.43164-5.56445.09277,16.77637,12.33887.00293v5.0072h-41.16235Z"/>
</svg>