<?xml version="1.0" encoding="UTF-8"?>
<svg id="Ebene_2" data-name="Ebene 2" xmlns="http://www.w3.org/2000/svg" viewBox="0 0 160 160">
  <defs>
    <style>
      .cls-1 {
        stroke-width: 0px;
      }
    </style>
  </defs>
  <path class="cls-1" d="m80.15444,30.0534c-27.75781,0-50.34082,22.42383-50.34082,49.98535s22.58301,49.98438,50.34082,49.98438,50.34082-22.42285,50.34082-49.98438-22.58301-49.98535-50.34082-49.98535Zm0,94.89941c-9.23047,0-17.82007-2.76074-24.98608-7.48511l2.04468-8.68091,4.60352-3.89746,1.62305-11.27051-12.18262-6.80957-8.4209-7.00977-7.88794-2.13593c.22461-4.25513,1.05908-8.35016,2.40051-12.21356l3.9425-1.29016,6.22363-6.31152,9.38184-4.44727.14258-7.81152,1.24658-4.86133c6.48706-3.56653,13.94116-5.60449,21.86865-5.60449,6.63989,0,12.94409,1.43732,18.63086,3.99615l-3.45605,1.01068-3.80469,7.49707-9.63965,3.2832-.13965,9.36719-4.95703,5.24023-2.81348,9.78516,7.9248,8.88574,10.55371-1.04688,3.8252,8.32617,2.45898,16.95312,5.13281,3.39648,11.25488-14.99023,3.54102-12.16602.92773-10.82617,5.02051-2.22375c.5249,2.73145.81055,5.54602.81055,8.42688,0,24.76562-20.30762,44.91406-45.27051,44.91406Z"/>
</svg>