<?xml version="1.0" encoding="UTF-8"?>
<svg id="Ebene_2" data-name="Ebene 2" xmlns="http://www.w3.org/2000/svg" viewBox="0 0 160 160">
  <defs>
    <style>
      .cls-1 {
        stroke-width: 0px;
      }
    </style>
  </defs>
  <path class="cls-1" d="m127.25991,37.96185l-17.10742-18.18652-15.14453,15.14355-15.08887-15.08789-15.08789,15.08789-15.15234-15.15137-16.97363,18.20117,29.94043,72.1463h-2.72595v9.58282c0,11.0918,8.99158,20.08344,20.08337,20.08344s20.0835-8.99164,20.0835-20.08344v-9.58282h-2.79285l29.96619-72.15314Zm-5.93945,1.08398l-29.51624,71.06915h-8.11047l13.79883-70.51068,12.54858-12.54773,11.2793,11.98926Zm-28.96082.3949l-12.33118,63.01074-12.36768-63.19232,12.2583-12.25824,12.44055,12.43982Zm-53.72083-.40173l11.16699-11.97461,12.80981,12.80908,13.74731,70.24152h-8.229l-29.49512-71.07599Z"/>
</svg>