<?xml version="1.0" encoding="UTF-8"?>
<svg id="Ebene_2" data-name="Ebene 2" xmlns="http://www.w3.org/2000/svg" viewBox="0 0 160 160">
  <defs>
    <style>
      .cls-1 {
        stroke-width: 0px;
      }
    </style>
  </defs>
  <path class="cls-1" d="m123.1863,89.53662c-.46056-1.61197-1.89304-5.7218-2.25387-6.6431-2.7465-7.01256-4.30546-14.40893-1.43515-26.80864.58031-2.50695,3.60981-9.63921,3.60981-9.63921,0,0-7.3755,3.55717-13.41735,10.21344-4.24777,4.67975-6.08279,9.09657-6.86108,10.34283,0-14.23419-2.56011-24.67942-10.24042-33.28138-6.94551-7.77898-10.35517-11.2325-23.34817-14.95102-2.02351-.57912-8.26948-1.57968-8.26948-1.57968l1.93047,6.57548c.04787.16259,4.70278,16.40362-1.85784,27.42686-3.837,6.44838-8.15555,11.62702-12.19473,16.1156-4.76203,5.29187-10.76994,13.46242-13.12042,23.10247-3.0811,12.63653,2.0831,31.06591,14.36641,41.50295,7.10151,6.03411,15.08658,8.36831,18.47109,9.80564-5.1951-6.14506-12.81443-25.24913-3.7097-46.58828,0,0,3.51615,6.37203,11.34759,10.28394,0,0-7.49137-20.255,9.94653-38.54165,0,0-2.52655,15.16909,13.72833,26.30156,10.84421,7.42687,16.72675,31.13003-.07153,45.35191,2.32849-.97927,15.06688-8.72396,21.20183-23.69521,3.24606-7.92243,4.52286-17.08635,2.17767-25.2945Z"/>
</svg>