<?xml version="1.0" encoding="UTF-8"?>
<svg id="Ebene_2" data-name="Ebene 2" xmlns="http://www.w3.org/2000/svg" viewBox="0 0 160 160">
  <defs>
    <style>
      .cls-1 {
        stroke-width: 0px;
      }
    </style>
  </defs>
  <path class="cls-1" d="m90.18885,105.99135c-2.70728-1.9433-6.44702-2.91687-11.22339-2.91687-4.67151,0-8.35803.97357-11.06335,2.91687-2.70728,1.94708-4.05994,4.68866-4.05994,8.22656,0,3.44843,1.35266,6.14807,4.05994,8.09131,2.70532,1.94519,6.39185,2.91876,11.06335,2.91876,4.77637,0,8.51611-.97357,11.22339-2.91876,2.70544-1.94324,4.06006-4.64288,4.06006-8.09131,0-3.5379-1.35461-6.27948-4.06006-8.22656Z"/>
  <path class="cls-1" d="m117.09204,46.22762c-3.55701-3.66943-8.41138-6.41095-14.56506-8.22473-6.15771-1.81183-13.16113-2.71869-21.01428-2.71869-9.02112,0-16.53125,1.04022-22.52686,3.11688-5.99573,2.07855-10.72058,4.95349-14.16699,8.62286-3.45032,3.67133-5.86609,7.80554-7.24353,12.40466l26.10669,7.56171c.74316-4.42194,2.44067-7.76172,5.09448-10.01746,2.6521-2.25385,6.26245-3.38171,10.82532-3.38171,3.18359,0,5.75549.35437,7.7218,1.06116,1.96228.70874,3.44641,1.76996,4.45801,3.18359,1.00598,1.41553,1.51086,3.13971,1.51086,5.1745,0,2.29956-.79456,4.29047-2.38721,5.96893-1.59265,1.68036-4.32666,3.07495-8.198,4.17804-3.87512,1.10693-9.15442,1.92426-15.83972,2.45581l-.16003,20.16449h23.87952l1.59082-11.41016c5.51758-.52966,10.58716-1.65753,15.20337-3.38171,4.61633-1.72418,8.27808-4.28857,10.98535-7.69507,2.70532-3.40265,4.05811-7.84741,4.05811-13.33246,0-5.48315-1.77759-10.05939-5.33264-13.73065Z"/>
</svg>