<?xml version="1.0" encoding="UTF-8"?>
<svg id="Ebene_2" data-name="Ebene 2" xmlns="http://www.w3.org/2000/svg" viewBox="0 0 160 160">
  <defs>
    <style>
      .cls-1 {
        stroke-width: 0px;
      }
    </style>
  </defs>
  <path class="cls-1" d="m79.70578,29.96088c-27.60645,0-50.06543,22.45898-50.06543,50.06543s22.45898,50.06543,50.06543,50.06543,50.06543-22.45898,50.06543-50.06543-22.45898-50.06543-50.06543-50.06543Zm-29.18799,43.06799l12.30127,5.27203,4.39319,13.52075-7.54797,11.10663-19.10742-.62299c-2.927-5.12311-4.87671-10.86932-5.59583-16.99023l15.55676-12.28619Zm49.48999,29.78253l-7.71826-11.35785,4.10449-12.63196,12.97021-5.55865,15.12354,11.75946c-.6792,6.12799-2.59326,11.88593-5.48523,17.02594l-18.99475.76306Zm12.78259-53.3429l-5.39661,19.1994-10.27759,4.40472-15.0647-10.94513v-12.13635l16.23474-11.00531c5.5155,2.50708,10.44153,6.08752,14.50415,10.48267Zm-51.93665-10.3598l16.19775,10.80225v12.41949l-14.39746,10.46027-10.90283-4.67267-5.33301-18.43677c4.03418-4.42157,8.93945-8.03021,14.43555-10.57257Zm10.05811,85.11548l-6.93494-18.74701,6.90259-10.15698h17.99304l6.7511,9.93469-6.83569,18.91705c-2.93445.60284-5.97205.9198-9.08215.9198-3.00928,0-5.94849-.30231-8.79395-.86755Z"/>
</svg>