<?xml version="1.0" encoding="UTF-8"?>
<svg id="Ebene_2" data-name="Ebene 2" xmlns="http://www.w3.org/2000/svg" viewBox="0 0 160 160">
  <defs>
    <style>
      .cls-1 {
        stroke-width: 0px;
      }
    </style>
  </defs>
  <path class="cls-1" d="m134.98744,63.24179v-10.02734h-10.1377v-10.1377H14.73256v54.6543h10.1377v10.1377h10.22266v10.02637h110.11621v-54.65332h-10.22168Zm-110.11719,29.48926h-5.1377v-44.6543h100.11719v5.1377H24.87026v39.5166Zm38.52515.53326c-2.39038,0-4.32812-1.93781-4.32812-4.32819s1.93774-4.32819,4.32812-4.32819,4.32825,1.93781,4.32825,4.32819-1.93787,4.32819-4.32825,4.32819Zm26.75562,11.63135c-7.91284,0-14.32739-6.41455-14.32739-14.32727s6.41455-14.32727,14.32739-14.32727,14.32715,6.41455,14.32715,14.32727-6.41455,14.32727-14.32715,14.32727Zm26.75549-11.63135c-2.3905,0-4.32825-1.93781-4.32825-4.32819s1.93774-4.32819,4.32825-4.32819c2.39038,0,4.32825,1.93781,4.32825,4.32819s-1.93787,4.32819-4.32825,4.32819Zm13.08093-30.02252H35.09291v39.62695h-5.22266v-44.6543h100.11719v5.02734Z"/>
</svg>