<?xml version="1.0" encoding="UTF-8"?>
<svg id="Ebene_2" data-name="Ebene 2" xmlns="http://www.w3.org/2000/svg" viewBox="0 0 160 160">
  <defs>
    <style>
      .cls-1 {
        stroke-width: 0px;
      }
    </style>
  </defs>
  <path class="cls-1" d="m123.673,106.7431c-3.38477-2.27734-7.43262-3.13574-11.39844-2.41895-2.64355.47778-5.03125,1.62836-6.99902,3.30847v-15.6792c.53564.47797,1.09479.93457,1.70117,1.34241l11.68457,7.85742.64355.42871,26.90723-.08984-10.22266-24.73535-12.31641-8.28027c-3.38477-2.27637-7.43262-3.13379-11.39844-2.41992-2.64355.47778-5.03125,1.62836-6.99902,3.30847v-13.28503c0-11.60254-9.43945-21.04199-21.04102-21.04199-3.28149,0-6.37762.77667-9.1485,2.12219l-14.64838-22.01086-27.0929,40.0332h-3.42957v5h4.20728v33.66266l10.92822,10.94873h34.99347l10.92828-10.87067v-33.74072h4.01599v-5h-7.90839l-9.16156-13.76636c1.93884-.83844,4.07288-1.30786,6.31604-1.30786,8.80664,0,15.9707,7.16504,15.9707,15.97168v22.86456c-.11481,1.06799-.12195,2.15265,0,3.24231v35.02484l-.09186,1.7644c-4.94122-5.45367-13.40759-6.51562-19.80951-2.16565l-11.64258,7.91992-.75098.5166-.21387.75098-9.60742,24.1748,26.7627-.27734,12.27148-8.34766c3.37402-2.29297,5.67871-5.73047,6.49023-9.67871.20618-1.00372.30835-2.00983.31183-3.00677.88745,1.01331,1.90289,1.92792,3.05243,2.70111l12.32715,8.28516,26.90723-.08789-10.22266-24.73633-12.31641-8.28125ZM60.40249,24.12201l10.46295,15.72107c-4.46552,3.68329-7.36554,9.17578-7.62744,15.33948h-23.8559l21.02039-31.06055Zm20.67194,31.06055h-12.76611c.2467-4.40631,2.2785-8.33466,5.39343-11.07776l7.37268,11.07776Zm32.08881,15.79492c.61426-.11133,1.23047-.16602,1.84473-.16602,2.06641,0,4.10254.62109,5.875,1.81445l11.06348,7.4375,6.79883,16.4541-17.92969.05859-11.04785-7.42871c-2.2998-1.54688-3.875-3.86523-4.43555-6.52832-.02478-.11761-.03607-.23517-.05664-.35284v-3.49823c.08484-.46124.21143-.91248.36267-1.35651l12.12268,8.08063,2.8125-4.21875-12.09998-8.06549c1.31177-1.13251,2.91254-1.909,4.68982-2.23041Zm-14.44727,59.88477c-.54883,2.66699-2.1123,4.99316-4.4043,6.55078l-11.02246,7.49805-17.80176.18555,6.62109-16.66406,11.00684-7.4873c3.96021-2.6897,9.06598-2.33691,12.42798.54047l-12.01099,8.24078,2.86719,4.17969,11.99176-8.2276c.56299,1.63953.68805,3.41449.32465,5.18365Zm22.09961,3.98047l-11.04785-7.42773c-2.29883-1.54688-3.875-3.86523-4.43555-6.5293-.02478-.11761-.20065-.90323-.2252-1.96302-.02701-1.16597.16856-1.88763.16856-1.88763.0849-.4613.21155-.9126.36285-1.35675l12.1225,8.08142,2.8125-4.21875-12.09955-8.0661c1.31171-1.13257,2.91229-1.90936,4.68939-2.23077.61426-.11035,1.23047-.16504,1.84473-.16504,2.06641,0,4.10254.62012,5.875,1.8125l11.06348,7.43945,6.79883,16.45312-17.92969.05859Z"/>
</svg>