<?xml version="1.0" encoding="UTF-8"?>
<svg id="Ebene_2" data-name="Ebene 2" xmlns="http://www.w3.org/2000/svg" viewBox="0 0 160 160">
  <defs>
    <style>
      .cls-1 {
        stroke-width: 0px;
      }
    </style>
  </defs>
  <path class="cls-1" d="m131.90445,89.71846l21.82251-14.62451-26.81519-40.01318-21.82251,14.62451,1.79102,2.67242-3.76929,2.48004-30.85919-6.39874-4.45282,6.49603-11.43799.02087-3.02026-2.03619,2.16748-3.23444-21.82251-14.62451L6.87076,75.09395l21.82227,14.62451,1.28857-1.92249,2.92139,1.93451-2.24414,2.12921c-1.51953,1.44043-2.38672,3.38574-2.44141,5.47852-.05566,2.09277.70801,4.08105,2.14844,5.59961l.39746.41895c1.13818,1.19958,2.56934,1.9563,4.07764,2.27014-.02734.23535-.04688.47253-.05322.71228-.05566,2.0918.70801,4.08008,2.14844,5.59863l.39746.41895c1.53809,1.62109,3.61035,2.43848,5.68652,2.43848.54834,0,1.09619-.06354,1.63525-.1778.31738,1.26221.94873,2.4632,1.90674,3.47369l.39551.41699c1.44043,1.51855,3.38574,2.38477,5.47852,2.43945.07031.00195.14062.00293.21094.00293,1.61255,0,3.15161-.49359,4.45605-1.40192.35742.91962.89136,1.78735,1.61133,2.54645l.39746.41895c1.53809,1.62109,3.61035,2.43848,5.68652,2.43848,1.9375,0,3.87793-.71191,5.3916-2.14648l4.45605-4.22748,5.19336,3.60345c1.33301.92188,2.88184,1.40137,4.46875,1.40137.47656,0,.95605-.04297,1.43457-.13086,2.07324-.37891,3.875-1.54199,5.07324-3.27637.62671-.9068,1.03491-1.90015,1.23999-2.91779l3.98462,2.71173c1.36621.94434,2.92676,1.39648,4.47363,1.39648,2.50684,0,4.97363-1.18848,6.50293-3.40234.61035-.88336,1.01367-1.849,1.22363-2.83917l.21582.14777c1.36621.94434,2.92773,1.39648,4.47461,1.39648,2.50586,0,4.97266-1.18848,6.50293-3.40234,2.28516-3.30627,1.68604-7.7558-1.24829-10.37177.80518-.53662,1.52515-1.22858,2.10767-2.07159,1.19824-1.7334,1.64941-3.83008,1.27051-5.90332-.09546-.52185-.24097-1.02631-.43286-1.50879l9.14624-6.12073,1.62695,2.42773Zm-97.91162,9.77795c-.52148-.5498-.79688-1.26953-.77734-2.02637s.33398-1.46094.88379-1.98242l4.87402-4.62402c.5498-.52148,1.27539-.7998,2.02637-.77734.75684.01953,1.46094.33301,1.98242.88281l.39746.41895c.52148.5498.79785,1.26953.77734,2.02637-.01025.39838-.10669.77979-.27148,1.13l-6.36475,6.0379c-1.05029.42865-2.30273.20514-3.13037-.66693l-.39746-.41895Zm6.96777,9.41895l-.39746-.41895c-.52148-.5498-.79785-1.26855-.77734-2.02637.01758-.68512.28687-1.31964.74365-1.82196,1.01371-.88409,9.26318-8.81573,9.26318-8.81573,1.13379-1.07324,2.93359-1.02637,4.00879.10645l.39746.41895c.52148.5498.79688,1.26855.77734,2.02539-.01196.46533-.14722.90417-.36768,1.29913-.10449.08923-9.63916,9.33954-9.63916,9.33954-1.13184,1.07617-2.93164,1.02832-4.00879-.10645Zm11.60742,7.03418c-.75781-.01953-1.46094-.33301-1.98242-.88281l-.39746-.41797c-.85669-.90405-.98975-2.22272-.44092-3.26794,0,0,7.54163-7.23007,8.50977-8.18573.43066-.2536.91797-.39594,1.42822-.39594.02637,0,.05176.00098.07715.00098.75781.02051,1.46191.33398,1.9834.88379l.39746.41895c.52148.5498.79688,1.26855.77734,2.02539-.01953.75781-.33398,1.46191-.88379,1.9834l-7.44238,7.06055c-.5498.52148-1.28027.81836-2.02637.77734Zm14.18164,3.22852c-1.13477,1.07715-2.93457,1.0293-4.01074-.10547l-.39746-.41895c-1.0752-1.13379-1.02832-2.93262.10645-4.00879l4.875-4.62402c1.13477-1.07617,2.93262-1.0293,4.00879.10547l.39746.41895c.52148.54883.79688,1.26855.77734,2.02637-.02051.75684-.33398,1.46094-.88379,1.98242l-4.87305,4.62402Zm48.57129-8.75391c-.90625,1.31152-2.71191,1.6416-4.0293.72949l-27.61426-18.91602-.02124.03101-.03931-.0271-2.83789,4.11719,21.39062,14.74219c1.31152.90625,1.64062,2.70996.73438,4.02148-.43945.63477-1.09863,1.06055-1.8584,1.2002-.76172.13574-1.52734-.02734-2.17773-.47559l-21.18823-14.41949-.03833-.02679-.00049.00049-.0249-.01709-1.40625,2.06641-1.43164,2.0498,11.19043,7.8125c1.31055.90625,1.64062,2.70996.73438,4.02148-.90527,1.31152-2.70801,1.63867-4.01758.7373l-5.39648-3.74408c.12573-.52704.20093-1.0697.21582-1.62408.05566-2.09277-.70801-4.08105-2.14844-5.59961l-.39746-.41895c-1.44043-1.51855-3.38574-2.38477-5.47852-2.43945-.59326-.02185-1.17603.03278-1.7439.14447-.29907-1.38721-.9646-2.67261-1.96606-3.72845l-.39746-.41895c-1.47046-1.55066-3.43018-2.36371-5.41406-2.43225-.11353-1.83069-.85547-3.5473-2.13281-4.89392l-.39746-.41895c-2.30737-2.43152-5.81543-3.047-8.73682-1.81433-.3623-1.00604-.92725-1.93732-1.68506-2.73645l-.39648-.41895c-1.44043-1.51855-3.38672-2.38477-5.47852-2.43945-1.59277-.04541-3.09106.37451-4.38086,1.19464l-3.98633-2.63953,17.79297-26.55023,4.28027,2.88477,9.5083-.01678-9.96199,14.44167,4.78252,3.26011c2.35352,1.81836,5.18093,2.63825,7.95144,2.63825,3.85156,0,7.66797-1.7041,10.22852-4.9668l3.48218-4.48499,34.61743,23.11096c1.31055.90625,1.64062,2.70996.73438,4.02051-.86548,1.25616-2.5498,1.59937-3.854.8255l-22.72998-15.51984-1.41016,2.06445-1.41113,2.06348.00098.00079v.00018l.30249.2066,22.23853,15.20648c.07324.05078.15283.08472.22754.13263l5.04199,3.44257c.63477.43945,1.06055,1.09863,1.2002,1.8584.13867.75977-.02734,1.52734-.46582,2.16211Zm2.55542-20.85199l-38.13724-25.47255-6.3342,8.15853c-2.71484,3.45801-7.73633,4.0625-11.19238,1.34863l-.82373-.55347,13.11963-19.01941,29.61816,6.14026,5.53711-3.6427,17.82959,26.60492-9.61694,6.43579Z"/>
</svg>