<?xml version="1.0" encoding="UTF-8"?>
<svg id="Ebene_2" data-name="Ebene 2" xmlns="http://www.w3.org/2000/svg" viewBox="0 0 160 160">
  <defs>
    <style>
      .cls-1 {
        stroke-width: 0px;
      }
    </style>
  </defs>
  <polygon class="cls-1" points="136.34151 69.99901 137.99617 79.26537 128.64717 83.31939 130.71553 93.66125 123.93123 109.21551 106.97359 112.60021 103.41292 117.489 93.40523 119.35345 88.08479 124.58697 149.82735 124.58697 149.82735 64.86944 136.34151 69.99901"/>
  <path class="cls-1" d="m91.51546,97.67376c1.04163-.38239,2.0542-.82367,3.04004-1.31116,8.95239,5.58252,18.55542,6.68109,24.86377,2.03198l-11.75073-14.30536c.4624-.79651.89172-1.6142,1.28333-2.45361,10.71545-1.36475,19.03162-6.74939,20.90833-14.50024l-18.38647-3.4408c-.13513-.86218-.30981-1.71088-.5144-2.54797,7.41431-7.95782,10.36987-17.4892,6.80725-24.66949l-16.10095,9.07251c-.70898-.64337-1.44873-1.25336-2.21509-1.82965.47217-10.72174-3.38379-19.77454-10.65576-22.95325l-6.30884,16.78479c-.55115-.02911-1.10571-.04553-1.66406-.04553-.6073,0-1.20923.02203-1.80786.05646-6.48486-8.17511-15.05444-12.40161-22.51123-10.20856l5.74768,16.32104c-1.10388.82587-2.14661,1.72778-3.12976,2.69031-9.95081-1.8562-18.91455.46399-23.12085,6.79248l11.53076,6.81915H14.81783v19.80719h22.77197c-.68909,2.06689-.94922,4.19159-.71106,6.31848l16.66748-2.7594c.71484,1.31403,1.52148,2.57086,2.41211,3.76141-3.43713,9.37866-2.67615,18.47968,2.77148,23.66931l11.271-13.15033c1.23071.45807,2.50012.83441,3.79883,1.13501,3.34302,9.67682,9.87988,16.38776,17.52783,16.87036l.18799-17.95514Zm-71.62817-22.95917v-9.66821h58.87219l.00037,9.66821H19.88728Zm60.83862,8.79877c-3.77832,0-7.21021-1.41852-9.84204-3.72931h12.94568l-.00085-19.80719h-15.3645c2.70435-3.87402,7.17847-6.41791,12.26172-6.41791,8.27173,0,14.97717,6.70551,14.97717,14.97717s-6.70544,14.97723-14.97717,14.97723Z"/>
</svg>