<?xml version="1.0" encoding="UTF-8"?>
<svg id="Ebene_2" data-name="Ebene 2" xmlns="http://www.w3.org/2000/svg" viewBox="0 0 160 160">
  <defs>
    <style>
      .cls-1 {
        stroke-width: 0px;
      }
    </style>
  </defs>
  <path class="cls-1" d="m149.32941,87.17733l-10.57422-10.63867-28.73633,28.55859h-27.69922v-39.24219l10.72559,7.08496,13.0791-8.6377,13.07812,8.6377,15.57715-10.28906v-11.30202L79.99903,14.80313,25.14289,51.40444v11.2475l15.58496,10.28711,13.08496-8.63672,13.07617,8.6377,10.43066-6.88812v39.04535H29.57648v15h15.78003l-3.79175,13.97461,4.82617,1.30859,4.14679-15.2832h26.78192v14.83301h5v-14.83301h31.77679l4.14606,15.2832,4.82617-1.30859-4.44366-16.38025,30.70441-30.51428Zm-95.5166-28.86719l-13.08496,8.63867-10.58496-6.98828v-8.40338l49.85614.08459,49.78058-.08447v8.40424l-10.57715,6.98633-13.07812-8.6377-13.0791,8.6377-13.07617-8.6377-13.08008,8.6377-13.07617-8.6377Z"/>
</svg>