<?xml version="1.0" encoding="UTF-8"?>
<svg id="Ebene_2" data-name="Ebene 2" xmlns="http://www.w3.org/2000/svg" viewBox="0 0 160 160">
  <defs>
    <style>
      .cls-1 {
        stroke-width: 0px;
      }
    </style>
  </defs>
  <path class="cls-1" d="m79.93976,119.83528h.03809c4.63672-.00977,8.99219-1.8252,12.26367-5.11133,3.27148-3.28516,5.06738-7.64844,5.05664-12.28516-.01953-9.55859-7.80371-17.32031-17.3584-17.32031h-.03711c-9.57227.02051-17.3418,7.8252-17.32031,17.39648.00977,4.63672,1.82422,8.99121,5.11035,12.2627,3.27734,3.2627,7.625,5.05762,12.24707,5.05762Z"/>
  <path class="cls-1" d="m49.77668,135.21517h60.32733V25.1617h-60.32733v110.05347Zm30.14185-100.15839c5.51422-.01202,9.99414,4.44836,10.00623,9.96259.01202,5.51422-4.44836,9.9942-9.96259,10.00623-5.51422.01208-9.99414-4.4483-10.00623-9.96259-.01202-5.51422,4.44836-9.99414,9.96259-10.00623Zm-.02759,44.99139h.04883c12.34473,0,22.40039,10.03027,22.42871,22.37891.0127,5.99121-2.30762,11.62891-6.53418,15.87402s-9.85352,6.59082-15.84473,6.60449h-.0498c-5.97266,0-11.58984-2.31934-15.82422-6.53516-4.24512-4.22656-6.58984-9.85352-6.60352-15.84375-.02734-12.36719,10.01172-22.4502,22.37891-22.47852Z"/>
  <rect class="cls-1" x="25.02639" y="100.03391" width="14.85994" height="5.06856" transform="translate(-.89525 .2876) rotate(-.5008)"/>
  <rect class="cls-1" x="32.44799" y="78.47973" width="5.06948" height="14.85955" transform="translate(-56.0833 68.2683) rotate(-56.88016)"/>
  <rect class="cls-1" x="27.55296" y="118.66871" width="14.85955" height="5.06948" transform="translate(-60.53334 38.79746) rotate(-33.11456)"/>
  <rect class="cls-1" x="119.9551" y="99.7844" width="14.85995" height="5.06856" transform="translate(-.8961 1.12574) rotate(-.50456)"/>
  <rect class="cls-1" x="122.32397" y="111.54787" width="5.06948" height="14.85902" transform="translate(-43.00798 158.55118) rotate(-56.88331)"/>
  <rect class="cls-1" x="117.42893" y="81.14918" width="14.85955" height="5.06948" transform="translate(-25.4382 81.80411) rotate(-33.11456)"/>
</svg>