<?xml version="1.0" encoding="UTF-8"?>
<svg id="Ebene_2" data-name="Ebene 2" xmlns="http://www.w3.org/2000/svg" viewBox="0 0 160 160">
  <defs>
    <style>
      .cls-1 {
        stroke-width: 0px;
      }
    </style>
  </defs>
  <path class="cls-1" d="m126.3266,70.7485h-.00012v-11.1825h-24.10773c-4.82361-4.04462-10.52911-6.99213-16.80731-8.59863-6.58545-1.68671-13.32257-1.76855-19.76862-.33661l-5.74896-28.82257-14.71094,2.93359,6.35132,31.83789c-8.95984,5.84003-15.31763,14.68896-17.98511,25.11426-2.82324,11.03027-1.18164,22.5,4.62207,32.29492,5.80371,9.7959,15.07422,16.74512,26.10449,19.56738,3.53223.90332,7.07324,1.33496,10.56152,1.33496,19.00391,0,36.37793-12.82422,41.30078-32.06152,2.36621-9.24475,1.58417-18.79431-2.14404-27.41229l8.20569.24908,8.62891,43.75,4.90625-.9668-9.4082-47.70117Zm-14.50116,28.39667l-30.51605-7.80927,27.10022-16.05646c3.75604,7.3985,4.94531,15.71069,3.41583,23.86572Zm-25.25458-42.62573c7.8869,2.57544,14.60553,7.61121,19.29034,14.45898l-27.0993,16.05591,7.80896-30.51489Zm-4.84222-1.24634l-7.81073,30.52185-16.05969-27.10675c5.30121-2.69159,11.07294-4.0675,16.92041-4.0675,2.31329,0,4.63812.21863,6.95001.6524Zm-28.16711,5.97076l16.0556,27.09991-30.51569-7.8092c2.57611-7.88708,7.61212-14.60583,14.46008-19.29071Zm-15.69983,24.13458l30.51489,7.80896-27.09906,16.05579c-3.75604-7.39832-4.94531-15.70984-3.41583-23.86475Zm5.96423,28.16577l27.09961-16.05609-7.8092,30.51581c-7.88696-2.57605-14.60559-7.61194-19.29041-14.45972Zm24.13452,15.69843l7.80896-30.51465,16.0459,27.0835c-7.15637,3.62567-15.48511,4.99396-23.85486,3.43115Zm28.15601-5.97943l-16.04578-27.08319,30.51422,7.80884c-2.64929,8.091-7.8501,14.73895-14.46844,19.27435Z"/>
</svg>