<?xml version="1.0" encoding="UTF-8"?>
<svg id="Ebene_2" data-name="Ebene 2" xmlns="http://www.w3.org/2000/svg" viewBox="0 0 160 160">
  <defs>
    <style>
      .cls-1 {
        stroke-width: 0px;
      }
    </style>
  </defs>
  <path class="cls-1" d="m119.22533,83.96869c-2.76367-2.75098-7.24414-2.75488-10.01172-.01172l.00098.00098c-2.28613,2.28711-5.32715,3.5459-8.56152,3.5459-3.21191,0-6.2334-1.24219-8.51562-3.49902-1.34277-1.34277-3.12793-2.08203-5.02637-2.08203-1.87109,0-3.63184.71777-4.9668,2.02441-4.7207,4.7207-12.40234,4.7207-17.12305,0-1.34082-1.33398-3.12012-2.06836-5.01172-2.06836-1.88672,0-3.66113.73047-5,2.05664l.00098.00098c-4.70703,4.70703-12.35254,4.71973-17.07812.0459-2.77148-2.76953-7.28125-2.77148-10.05273,0l-.21973.19531-2.49536,1.96759v49.10089h109.86157v-50.15106c-4.73853,3.54413-11.49683,3.17761-15.80078-1.1264Z"/>
  <path class="cls-1" d="m121.26353,71.9884l.01501.0141c-3.80029-3.80042-9.96216-3.80042-13.76257,0l.02783-.02478c-3.40442,3.40454-8.69885,3.74933-12.49817,1.0542V30.14838h5.01465v-5.07031h-10.08496v15.14941h-25.0918v-10.0791h5.03516v-5.07031h-10.10547v44.06726c-2.59509-.08392-5.2168.85443-7.19763,2.83521l.02783-.02472c-3.80042,3.80042-9.96228,3.80042-13.76257,0l.04639.04706c-3.80042-3.80048-9.96216-3.80048-13.7627,0v7.70929c4.73718-3.94745,11.79663-3.72211,16.25806.68915,2.7627,2.76172,7.25195,2.77148,10.02637.02539l-.00098-.00098c2.28613-2.28711,5.32715-3.54688,8.56152-3.54688s6.27539,1.25977,8.56152,3.54688c2.75098,2.73828,7.20605,2.75195,9.97852.04492v-.00098c2.28613-2.28711,5.32715-3.54688,8.56152-3.54688,3.21191,0,6.2334,1.24219,8.51562,3.5,1.34277,1.3418,3.12793,2.08105,5.02637,2.08105,1.88672,0,3.66113-.72949,5-2.05566l-.00098-.00098c4.7207-4.7207,12.40234-4.7207,17.12305,0,2.76074,2.74707,6.26075,2.53977,10.19385.41607.51991-.28073,2.05712-1.16363,2.05712-1.16363v-7.71124c-3.80042,3.80048-9.96216,3.80048-13.76257,0Zm-31.28821-26.69061v9.74609h-25.0918v-9.74609h25.0918Zm-9.91028,26.72699l.06067-.05829c-3.80042,3.80042-9.96216,3.80042-13.76257,0l.01501.01404c-.46545-.46545-.96704-.87213-1.49463-1.22357v-10.64276h25.0918v9.55139c-3.37378-1.10266-7.22876-.32239-9.91028,2.35919Z"/>
</svg>