<svg viewBox="0 0 160 160" xmlns="http://www.w3.org/2000/svg"><path d="m24.69408 24.95674v64.86023h20.4021v36.98596l24.97681-36.98596h64.74963v-64.86023zm28.38647 37.21405c-2.64209 0-4.78394-2.14185-4.78394-4.78394s2.14185-4.78394 4.78394-4.78394 4.78394 2.14185 4.78394 4.78394-2.14185 4.78394-4.78394 4.78394zm26.6604 0c-2.64209 0-4.78394-2.14185-4.78394-4.78394s2.14185-4.78394 4.78394-4.78394 4.78394 2.14185 4.78394 4.78394-2.14185 4.78394-4.78394 4.78394zm26.66052 0c-2.64209 0-4.78394-2.14185-4.78394-4.78394s2.14185-4.78394 4.78394-4.78394 4.78394 2.14185 4.78394 4.78394-2.14185 4.78394-4.78394 4.78394z"/></svg>