<?xml version="1.0" encoding="UTF-8"?>
<svg id="Ebene_2" data-name="Ebene 2" xmlns="http://www.w3.org/2000/svg" viewBox="0 0 160 160">
  <defs>
    <style>
      .cls-1 {
        stroke-width: 0px;
      }
    </style>
  </defs>
  <path class="cls-1" d="m116.3382,37.61492l-.47949-.19824c-2.02905-.83612-4.17261-.95831-6.16217-.49768.06055-4.16315-2.37927-8.14362-6.45697-9.82361-2.58105-1.06445-5.41895-1.05664-7.99609.01562-.46838.19501-.9104.43121-1.33875.68604-.02783-.07098-.04785-.14374-.07727-.21436-1.07227-2.5752-3.08398-4.5791-5.66406-5.6416-4.6427-1.91309-9.88702-.2207-12.60901,3.77429-1.11108-1.65649-2.70422-3.01471-4.68298-3.82996-2.58105-1.06445-5.41895-1.05664-7.99609.01562-2.5752,1.07227-4.5791,3.08398-5.6416,5.66406l-8.39453,20.37598c-.21899.53107-.23169,1.09106-.09125,1.60547h-5.33063l.89844,45.39551,10.5293,10.72723v29.15485h49.9386v-22.81836l7.67572-39.27063c.56104-.71606,1.04803-1.50641,1.41107-2.38782l8.00586-19.43359c2.13965-5.19336-.3457-11.16016-5.53809-13.29883Zm-19.17188-5.88867c1.3418-.56055,2.82129-.5625,4.16895-.00781,2.77637,1.14453,4.10449,4.33398,2.96094,7.11035l-1.44318,3.50317c-.10156.20593-.20642.40936-.2951.62476l-6.36169,15.44434c-.58105,1.18878-1.54333,2.12793-2.776,2.6416-1.33545.55511-2.8064.55798-4.14343.0155.92487-2.39966,1.453-4.995,1.453-7.71667v-4.21777h-2.46631l5.44708-13.22333.51434-1.22101c.55371-1.34473,1.59863-2.39355,2.94141-2.95312Zm-10.90723-5.16211c1.34473.55371,2.39355,1.59863,2.95312,2.94141s.5625,2.82324.00781,4.16895l-.13232.32123-6.55029,15.55084h-11.63654l8.24786-20.02148c1.14258-2.77441,4.33008-4.10547,7.11035-2.96094Zm-24.40234,2.90527c.55371-1.34473,1.59863-2.39355,2.94141-2.95312,1.34277-.56055,2.82227-.5625,4.16895-.00781,2.77637,1.14453,4.10449,4.33398,2.96094,7.11035l-6.07715,14.75195c-.15918.38599-.20319.78699-.1676,1.17578h-12.09796l8.27142-20.07715Zm-13.33984,25.07715h37.15186c-.62146,8.56244-7.76959,15.34375-16.48779,15.34375h-4.50684v5h4.50684c7.37543,0,13.89246-3.7287,17.77875-9.39587.12927.05945.25525.12476.38727.17908,1.2832.5293,2.63184.79297,3.97949.79297.8277,0,1.65387-.11218,2.46692-.31177-.04114,4.04419,2.33594,7.90302,6.29675,9.53442l.47754.19727.00195.00098c1.26562.52148,2.57617.76758,3.86719.76758.7522,0,1.49072-.10992,2.21582-.27209l-5.54327,28.36078h-40.16748l-11.66718-11.88556-.75781-38.31152Zm68.73633-5.53711l-8.00586,19.43359c-1.08984,2.64453-4.12598,3.91211-6.77344,2.82129l-.47754-.19727c-2.64453-1.08984-3.91016-4.12793-2.82031-6.77246l1.50848-3.66217c.10358-.21063.2099-.41956.30011-.63861l6.36029-15.43927c1.19489-2.4248,4.07526-3.55865,6.60748-2.51581l.47949.19824c2.64551,1.08984,3.91113,4.12793,2.82129,6.77246Z"/>
</svg>