<?xml version="1.0" encoding="UTF-8"?>
<svg id="Ebene_2" data-name="Ebene 2" xmlns="http://www.w3.org/2000/svg" viewBox="0 0 160 160">
  <defs>
    <style>
      .cls-1 {
        stroke-width: 0px;
      }
    </style>
  </defs>
  <polygon class="cls-1" points="64.02376 59.82186 68.66634 57.96444 63.51595 45.08749 72.40755 34.41757 65.83236 17.00936 61.15462 18.77694 66.70052 33.45663 57.76595 44.17733 64.02376 59.82186"/>
  <polygon class="cls-1" points="84.7015 59.82186 89.34408 57.96444 84.19368 45.08749 93.08529 34.41757 86.51009 17.00936 81.83236 18.77694 87.37826 33.45663 78.44368 44.17733 84.7015 59.82186"/>
  <path class="cls-1" d="m39.49923,65.20706l15.78961,79.74506h39.52893l9.42877-47.62006c12.36115-4.15582,21.29382-15.84521,21.29382-29.58929v-2.53571H39.49923Zm65.90497,26.2785l4.20605-21.2428h10.81195c-.89563,9.41656-6.79736,17.39258-15.01801,21.2428Z"/>
</svg>