<?xml version="1.0" encoding="UTF-8"?>
<svg id="Ebene_2" data-name="Ebene 2" xmlns="http://www.w3.org/2000/svg" viewBox="0 0 160 160">
  <defs>
    <style>
      .cls-1 {
        stroke-width: 0px;
      }
    </style>
  </defs>
  <path class="cls-1" d="m101.69367,36.66888l-15.58887,10.60352c-1.56769,1.06604-2.92218,2.32611-4.06647,3.71771l-.02332.00018c1.92737-7.43304-.97089-15.70111-7.82428-20.35461l-14.96777-10.1582-.64453-.43066-33.28906-.03418,12.51465,30.65332,15.59961,10.58594c3.32227,2.25586,7.09375,3.33789,10.80469,3.33789,4.77966,0,9.45581-1.79993,12.9425-5.19769l.26672,30.81293h-30.30298v5h4.20691v33.66266l10.92822,10.94873h34.99347l10.92822-10.87067v-33.74072h4.01642v-5h-29.70154l-.13013-15.03522c2.71118,3.01929,6.3363,5.0509,10.45178,5.7735,1.09961.19238,2.20312.28809,3.30176.28809,3.81348,0,7.55859-1.15039,10.80371-3.35645l14.95801-10.17383.70117-.48438,12.22949-30.89062-33.1084.34277Zm-45.48145,20.44629l-14.34961-9.73828-9.12793-22.35645,24.31445.02441,14.33301,9.72754c5.63525,3.82648,7.67358,10.93652,5.18213,16.79071l-16.2749-10.95087-2.83008,4.20508,16.25482,10.93732c-4.52374,4.46143-11.87506,5.18079-17.50189,1.36053Zm62.21191,6.88281l-14.32324,9.74219c-3.09668,2.10547-6.7959,2.91113-10.42871,2.27832-2.74359-.48206-5.18976-1.75269-7.09412-3.64191l16.18005-11.10028-2.86719-4.17969-16.15479,11.08295c-2.4809-5.84888-.44446-12.94727,5.18115-16.7724l14.33887-9.75391,24.14746-.25098-8.97949,22.5957Z"/>
</svg>