<?xml version="1.0" encoding="UTF-8"?>
<svg id="Ebene_2" data-name="Ebene 2" xmlns="http://www.w3.org/2000/svg" viewBox="0 0 160 160">
  <defs>
    <style>
      .cls-1 {
        stroke-width: 0px;
      }
    </style>
  </defs>
  <path class="cls-1" d="m139.98215,86.14086l-48.93835-20.28693-1.53345,4.2207-17.78552-6.45642,1.84937-6.02399c-.91968-.45337-1.85474-.88049-2.82031-1.24872l-.07544-.0354-.00037.00543c-3.63293-1.37518-7.56873-2.13531-11.68286-2.1394-3.85913-.00385-7.56165.65942-11.00671,1.86957-2.03198-3.87134-6.08618-6.52161-10.75342-6.52161-6.69531,0-12.1416,5.44629-12.1416,12.1416,0,3.95441,1.90845,7.46259,4.84326,9.68109-2.59766,4.71979-4.08057,10.13989-4.08643,15.90771-.01831,18.28699,14.79163,33.1264,33.07861,33.14471,12.97632.013,23.32617-6.60126,29.65088-18.94012l51.45923.04657-.05688-15.36481ZM30.09347,61.6657c0-3.9375,3.2041-7.1416,7.1416-7.1416,2.62341,0,4.91479,1.42578,6.15662,3.53894-4.19153,2.23785-7.84241,5.3515-10.71436,9.09607-1.57727-1.31122-2.58386-3.28662-2.58386-5.49341Z"/>
  <rect class="cls-1" x="65.57083" y="25.79232" width="4.9994" height="23.35029" transform="translate(-9.17383 29.05811) rotate(-22.61618)"/>
  <rect class="cls-1" x="100.90393" y="48.37571" width="23.35076" height="5.00089" transform="translate(-9.02837 72.64899) rotate(-34.46965)"/>
  <rect class="cls-1" x="83.39426" y="31.84028" width="23.35057" height="5.00046" transform="translate(27.39662 109.42622) rotate(-67.83289)"/>
</svg>