<?xml version="1.0" encoding="UTF-8"?>
<svg id="Ebene_2" data-name="Ebene 2" xmlns="http://www.w3.org/2000/svg" viewBox="0 0 160 160">
  <defs>
    <style>
      .cls-1 {
        stroke-width: 0px;
      }
    </style>
  </defs>
  <path class="cls-1" d="m72.82046,90.0472l10.91797,54.87012h28.43457l10.91797-54.87012h-50.27051Zm44.17676,5l-3.93933,19.79865h-30.20435l-3.93933-19.79865h38.08301Z"/>
  <polygon class="cls-1" points="90.05971 64.92708 105.2687 64.92708 105.2687 34.86751 65.00289 34.93074 65.00289 19.7881 80.07693 19.7881 80.07693 14.86635 45.2278 14.86635 45.2278 19.7881 60.30184 19.7881 60.30184 34.93807 34.96401 34.97786 34.98745 50.18685 90.05971 50.09993 90.05971 64.92708"/>
  <path class="cls-1" d="m92.98843,74.0602l-.0531,5.2356c-.02722,2.6319,2.0235,4.78699,4.58051,4.81342,2.55701.02649,4.65198-2.08563,4.6792-4.71759l.0531-5.23334-.00153-.00226-4.60126-6.94562-4.65692,6.84979Z"/>
</svg>