<?xml version="1.0" encoding="UTF-8"?>
<svg id="Ebene_2" data-name="Ebene 2" xmlns="http://www.w3.org/2000/svg" viewBox="0 0 160 160">
  <defs>
    <style>
      .cls-1 {
        stroke-width: 0px;
      }
    </style>
  </defs>
  <path class="cls-1" d="m89.82612,67.61658c.00854-.16815.02557-.33411.02557-.50433,0-4.13928-2.5506-7.69-6.16089-9.17444l6.95782-10.57996-6.75397-33.64789-8.74408-8.69238.13568,53.33661c-3.13367,1.66882-5.27344,4.96655-5.27344,8.75806,0,.23584.0191.46698.0354.69879l-12.7934-.75311-25.77808,22.65588-3.16376,11.91669,44.09631-25.56952v73.98389h15.0459v-71.37579l3.80267,7.41223,32.60956,10.69647,11.87189-3.328-45.91321-25.83319Zm-9.89435-5.42328c2.71289,0,4.91992,2.20703,4.91992,4.91895,0,2.71289-2.20703,4.91992-4.91992,4.91992-2.71191,0-4.91895-2.20703-4.91895-4.91992,0-2.71191,2.20703-4.91895,4.91895-4.91895Zm-2.45215,47.60529v-33.08575c.78589.20099,1.60449.31934,2.45215.31934.84796,0,1.66693-.11835,2.45312-.31952v33.08594h-4.90527Z"/>
</svg>